<?xml version="1.0" encoding="UTF-8" standalone="no"?>
<!-- Created with Inkscape (http://www.inkscape.org/) -->

<svg
   version="1.1"
   id="svg2"
   width="666.66669"
   height="666.66669"
   viewBox="0 0 666.66669 666.66669"
   sodipodi:docname="2844250.ai"
   xmlns:inkscape="http://www.inkscape.org/namespaces/inkscape"
   xmlns:sodipodi="http://sodipodi.sourceforge.net/DTD/sodipodi-0.dtd"
   xmlns="http://www.w3.org/2000/svg"
   xmlns:svg="http://www.w3.org/2000/svg">
  <defs
     id="defs6">
    <clipPath
       clipPathUnits="userSpaceOnUse"
       id="clipPath18">
      <path
         d="M 0,500 H 500 V 0 H 0 Z"
         id="path16" />
    </clipPath>
    <clipPath
       clipPathUnits="userSpaceOnUse"
       id="clipPath40">
      <path
         d="M 0,500 H 500 V 0 H 0 Z"
         id="path38" />
    </clipPath>
    <clipPath
       clipPathUnits="userSpaceOnUse"
       id="clipPath48">
      <path
         d="m 120.232,400.882 h 97.554 v -9.63 h -97.554 z"
         id="path46" />
    </clipPath>
    <radialGradient
       fx="0"
       fy="0"
       cx="0"
       cy="0"
       r="1"
       gradientUnits="userSpaceOnUse"
       gradientTransform="matrix(12.925497,0,0,-12.925497,277.51974,307.6214)"
       spreadMethod="pad"
       id="radialGradient162">
      <stop
         style="stop-opacity:1;stop-color:#ffc8af"
         offset="0"
         id="stop158" />
      <stop
         style="stop-opacity:1;stop-color:#ffbb9c"
         offset="1"
         id="stop160" />
    </radialGradient>
    <radialGradient
       fx="0"
       fy="0"
       cx="0"
       cy="0"
       r="1"
       gradientUnits="userSpaceOnUse"
       gradientTransform="matrix(19.920988,4.2899127,4.2899127,-19.920988,270.04175,331.01743)"
       spreadMethod="pad"
       id="radialGradient182">
      <stop
         style="stop-opacity:1;stop-color:#ffc8af"
         offset="0"
         id="stop178" />
      <stop
         style="stop-opacity:1;stop-color:#ffbb9c"
         offset="1"
         id="stop180" />
    </radialGradient>
    <clipPath
       clipPathUnits="userSpaceOnUse"
       id="clipPath192">
      <path
         d="M 0,500 H 500 V 0 H 0 Z"
         id="path190" />
    </clipPath>
    <radialGradient
       fx="0"
       fy="0"
       cx="0"
       cy="0"
       r="1"
       gradientUnits="userSpaceOnUse"
       gradientTransform="matrix(8.125864,0,0,-8.125864,249.96262,112.45213)"
       spreadMethod="pad"
       id="radialGradient258">
      <stop
         style="stop-opacity:1;stop-color:#ffc8af"
         offset="0"
         id="stop254" />
      <stop
         style="stop-opacity:1;stop-color:#ffbb9c"
         offset="1"
         id="stop256" />
    </radialGradient>
    <clipPath
       clipPathUnits="userSpaceOnUse"
       id="clipPath268">
      <path
         d="M 0,500 H 500 V 0 H 0 Z"
         id="path266" />
    </clipPath>
    <radialGradient
       fx="0"
       fy="0"
       cx="0"
       cy="0"
       r="1"
       gradientUnits="userSpaceOnUse"
       gradientTransform="matrix(7.4015398,0,0,-7.4015398,198.4986,110.41404)"
       spreadMethod="pad"
       id="radialGradient290">
      <stop
         style="stop-opacity:1;stop-color:#ffc8af"
         offset="0"
         id="stop286" />
      <stop
         style="stop-opacity:1;stop-color:#ffbb9c"
         offset="1"
         id="stop288" />
    </radialGradient>
    <clipPath
       clipPathUnits="userSpaceOnUse"
       id="clipPath300">
      <path
         d="M 0,500 H 500 V 0 H 0 Z"
         id="path298" />
    </clipPath>
    <radialGradient
       fx="0"
       fy="0"
       cx="0"
       cy="0"
       r="1"
       gradientUnits="userSpaceOnUse"
       gradientTransform="matrix(40.92001,-6.569726,-6.569726,-40.92001,243.56058,249.30255)"
       spreadMethod="pad"
       id="radialGradient338">
      <stop
         style="stop-opacity:1;stop-color:#ffc8af"
         offset="0"
         id="stop334" />
      <stop
         style="stop-opacity:1;stop-color:#ffbb9c"
         offset="1"
         id="stop336" />
    </radialGradient>
    <clipPath
       clipPathUnits="userSpaceOnUse"
       id="clipPath348">
      <path
         d="M 0,500 H 500 V 0 H 0 Z"
         id="path346" />
    </clipPath>
    <radialGradient
       fx="0"
       fy="0"
       cx="0"
       cy="0"
       r="1"
       gradientUnits="userSpaceOnUse"
       gradientTransform="matrix(40.92001,-6.569726,-6.569726,-40.92001,243.56058,249.30255)"
       spreadMethod="pad"
       id="radialGradient378">
      <stop
         style="stop-opacity:1;stop-color:#ffc8af"
         offset="0"
         id="stop374" />
      <stop
         style="stop-opacity:1;stop-color:#ffbb9c"
         offset="1"
         id="stop376" />
    </radialGradient>
    <clipPath
       clipPathUnits="userSpaceOnUse"
       id="clipPath388">
      <path
         d="M 0,500 H 500 V 0 H 0 Z"
         id="path386" />
    </clipPath>
    <clipPath
       clipPathUnits="userSpaceOnUse"
       id="clipPath404">
      <path
         d="m 273.126,285.814 h 9.997 v -25.178 h -9.997 z"
         id="path402" />
    </clipPath>
    <linearGradient
       x1="0"
       y1="0"
       x2="1"
       y2="0"
       gradientUnits="userSpaceOnUse"
       gradientTransform="matrix(0.0027175,-63.300472,-63.300472,-0.0027175,383.86938,201.22705)"
       spreadMethod="pad"
       id="linearGradient484">
      <stop
         style="stop-opacity:1;stop-color:#606bf1"
         offset="0"
         id="stop480" />
      <stop
         style="stop-opacity:1;stop-color:#58479f"
         offset="1"
         id="stop482" />
    </linearGradient>
    <clipPath
       clipPathUnits="userSpaceOnUse"
       id="clipPath494">
      <path
         d="M 0,500 H 500 V 0 H 0 Z"
         id="path492" />
    </clipPath>
    <linearGradient
       x1="0"
       y1="0"
       x2="1"
       y2="0"
       gradientUnits="userSpaceOnUse"
       gradientTransform="matrix(26.719412,-57.384689,-57.384689,-26.719412,333.66031,196.08757)"
       spreadMethod="pad"
       id="linearGradient516">
      <stop
         style="stop-opacity:1;stop-color:#606bf1"
         offset="0"
         id="stop512" />
      <stop
         style="stop-opacity:1;stop-color:#58479f"
         offset="1"
         id="stop514" />
    </linearGradient>
    <clipPath
       clipPathUnits="userSpaceOnUse"
       id="clipPath526">
      <path
         d="M 0,500 H 500 V 0 H 0 Z"
         id="path524" />
    </clipPath>
    <linearGradient
       x1="0"
       y1="0"
       x2="1"
       y2="0"
       gradientUnits="userSpaceOnUse"
       gradientTransform="matrix(19.193764,-75.949867,-75.949867,-19.193764,354.58765,214.88023)"
       spreadMethod="pad"
       id="linearGradient548">
      <stop
         style="stop-opacity:1;stop-color:#606bf1"
         offset="0"
         id="stop544" />
      <stop
         style="stop-opacity:1;stop-color:#58479f"
         offset="1"
         id="stop546" />
    </linearGradient>
    <clipPath
       clipPathUnits="userSpaceOnUse"
       id="clipPath558">
      <path
         d="M 0,500 H 500 V 0 H 0 Z"
         id="path556" />
    </clipPath>
    <clipPath
       clipPathUnits="userSpaceOnUse"
       id="clipPath582">
      <path
         d="M 0,500 H 500 V 0 H 0 Z"
         id="path580" />
    </clipPath>
  </defs>
  <sodipodi:namedview
     id="namedview4"
     pagecolor="#ffffff"
     bordercolor="#000000"
     borderopacity="0.25"
     inkscape:showpageshadow="2"
     inkscape:pageopacity="0.0"
     inkscape:pagecheckerboard="0"
     inkscape:deskcolor="#d1d1d1" />
  <g
     id="g8"
     inkscape:groupmode="layer"
     inkscape:label="2844250"
     transform="matrix(1.3333333,0,0,-1.3333333,0,666.66667)">
    <path
       d="M 0,0 H 500 V 500 H 0 Z"
       style="fill:#f9fbfc;fill-opacity:1;fill-rule:nonzero;stroke:none"
       id="path10" />
    <g
       id="g12">
      <g
         id="g14"
         clip-path="url(#clipPath18)">
        <g
           id="g20"
           transform="translate(465.6807,195.415)">
          <path
             d="m 0,0 -15.767,-110.709 h -400.916 l -11.84,84.456 c -1.317,9.462 3.915,18.632 12.743,22.303 l 35.582,14.766 v 35.388 c 0,10.426 7.634,19.266 17.95,20.766 l 8.414,1.232 14.132,47.788 c 2.635,8.927 10.829,15.035 20.121,15.035 h 144.56 c 5.5,0 10.536,-2.121 14.292,-5.608 3.755,-3.5 6.231,-8.366 6.633,-13.853 l 68.835,-7.268 c 10.219,-1.085 18.146,-9.389 18.755,-19.645 l 2.78,-47.752 48.642,-13.742 C -4.963,20.304 1.476,10.402 0,0"
             style="fill:#dae8ef;fill-opacity:1;fill-rule:nonzero;stroke:none"
             id="path22" />
        </g>
        <g
           id="g24"
           transform="translate(73.0342,172.583)">
          <path
             d="m 0,0 12.515,-87.877 h 318.231 l 9.399,67.037 c 1.045,7.512 -3.107,14.79 -10.115,17.703 L 301.786,8.585 v 28.089 c 0,8.276 -6.058,15.293 -14.247,16.483 l -6.679,0.978 -11.218,37.933 c -2.091,7.085 -8.595,11.934 -15.971,11.934 H 138.925 c -4.365,0 -8.363,-1.684 -11.344,-4.452 -2.981,-2.778 -4.946,-6.64 -5.266,-10.996 L 67.677,82.786 C 59.565,81.924 53.274,75.333 52.79,67.192 L 50.583,29.289 11.973,18.381 C 3.939,16.115 -1.171,8.256 0,0"
             style="fill:#ccd9e2;fill-opacity:1;fill-rule:nonzero;stroke:none"
             id="path26" />
        </g>
        <g
           id="g28"
           transform="translate(335.5723,117.4512)">
          <path
             d="m 0,0 c 0,9.472 -6.936,17.503 -16.307,18.865 l -7.643,1.119 -12.84,43.414 c -2.393,8.109 -9.837,13.659 -18.278,13.659 h -131.327 c -4.996,0 -9.571,-1.927 -12.982,-5.096 -3.413,-3.179 -5.661,-7.599 -6.027,-12.584 l -56.857,-6.003 12.264,-86.119 H 1.44 L 0,-32.147 Z"
             style="fill:#bcced8;fill-opacity:1;fill-rule:nonzero;stroke:none"
             id="path30" />
        </g>
      </g>
    </g>
    <path
       d="m 217.786,309.828 h -97.555 v 91.054 h 97.555 z"
       style="fill:#112b46;fill-opacity:1;fill-rule:nonzero;stroke:none"
       id="path32" />
    <g
       id="g34">
      <g
         id="g36"
         clip-path="url(#clipPath40)">
        <g
           id="g42">
          <g
             id="g44" />
          <g
             id="g54">
            <g
               clip-path="url(#clipPath48)"
               id="g52">
              <path
                 d="m 217.786,391.252 h -97.555 v 9.63 h 97.555 z"
                 style="fill:#1d262d;fill-opacity:1;fill-rule:nonzero;stroke:none"
                 id="path50" />
            </g>
          </g>
        </g>
        <g
           id="g56"
           transform="translate(196.6982,395.958)">
          <path
             d="m 0,0 c 0,-0.975 -0.79,-1.766 -1.765,-1.766 -0.975,0 -1.765,0.791 -1.765,1.766 0,0.975 0.79,1.765 1.765,1.765 C -0.79,1.765 0,0.975 0,0"
             style="fill:#606bf1;fill-opacity:1;fill-rule:nonzero;stroke:none"
             id="path58" />
        </g>
        <g
           id="g60"
           transform="translate(204.0693,395.958)">
          <path
             d="m 0,0 c 0,-0.975 -0.79,-1.766 -1.766,-1.766 -0.974,0 -1.764,0.791 -1.764,1.766 0,0.975 0.79,1.765 1.764,1.765 C -0.79,1.765 0,0.975 0,0"
             style="fill:#fbd15b;fill-opacity:1;fill-rule:nonzero;stroke:none"
             id="path62" />
        </g>
        <g
           id="g64"
           transform="translate(210.9131,395.772)">
          <path
             d="m 0,0 c 0,-0.975 -0.79,-1.765 -1.765,-1.765 -0.975,0 -1.765,0.79 -1.765,1.765 0,0.975 0.79,1.765 1.765,1.765 C -0.79,1.765 0,0.975 0,0"
             style="fill:#ff8578;fill-opacity:1;fill-rule:nonzero;stroke:none"
             id="path66" />
        </g>
        <path
           d="m 151.395,381.139 h -13.816 v 1.161 h 13.816 z"
           style="fill:#ff8578;fill-opacity:1;fill-rule:nonzero;stroke:none"
           id="path68" />
        <path
           d="m 167.612,381.139 h -13.817 v 1.161 h 13.817 z"
           style="fill:#fbd15b;fill-opacity:1;fill-rule:nonzero;stroke:none"
           id="path70" />
        <path
           d="m 163.277,374.883 h -21.426 v 1.161 h 21.426 z"
           style="fill:#606bf1;fill-opacity:1;fill-rule:nonzero;stroke:none"
           id="path72" />
        <path
           d="M 177.711,374.883 H 166.82 v 1.161 h 10.891 z"
           style="fill:#ff8578;fill-opacity:1;fill-rule:nonzero;stroke:none"
           id="path74" />
        <path
           d="m 158.694,368.627 h -9.41 v 1.161 h 9.41 z"
           style="fill:#fbd15b;fill-opacity:1;fill-rule:nonzero;stroke:none"
           id="path76" />
        <path
           d="m 195.351,368.627 h -31.218 v 1.161 h 31.218 z"
           style="fill:#fbd15b;fill-opacity:1;fill-rule:nonzero;stroke:none"
           id="path78" />
        <path
           d="m 192.27,362.372 h -35.677 v 1.162 h 35.677 z"
           style="fill:#606bf1;fill-opacity:1;fill-rule:nonzero;stroke:none"
           id="path80" />
        <path
           d="m 158.653,356.116 h -10.98 v 1.162 h 10.98 z"
           style="fill:#ff8578;fill-opacity:1;fill-rule:nonzero;stroke:none"
           id="path82" />
        <path
           d="m 174.331,356.116 h -10.98 v 1.162 h 10.98 z"
           style="fill:#606bf1;fill-opacity:1;fill-rule:nonzero;stroke:none"
           id="path84" />
        <path
           d="m 153.552,324.821 h -15.974 v -1.161 h 15.974 z"
           style="fill:#ff8578;fill-opacity:1;fill-rule:nonzero;stroke:none"
           id="path86" />
        <path
           d="m 175.119,324.821 h -15.974 v -1.161 h 15.974 z"
           style="fill:#fbd15b;fill-opacity:1;fill-rule:nonzero;stroke:none"
           id="path88" />
        <path
           d="m 196.106,324.821 h -15.974 v -1.161 h 15.974 z"
           style="fill:#ff8578;fill-opacity:1;fill-rule:nonzero;stroke:none"
           id="path90" />
        <path
           d="m 173.069,331.077 h -31.218 v -1.161 h 31.218 z"
           style="fill:#606bf1;fill-opacity:1;fill-rule:nonzero;stroke:none"
           id="path92" />
        <path
           d="m 209.153,331.077 h -31.217 v -1.161 h 31.217 z"
           style="fill:#ff8578;fill-opacity:1;fill-rule:nonzero;stroke:none"
           id="path94" />
        <path
           d="m 180.263,337.333 h -30.979 v -1.161 h 30.979 z"
           style="fill:#ff8578;fill-opacity:1;fill-rule:nonzero;stroke:none"
           id="path96" />
        <path
           d="m 191.585,337.333 h -8.622 v -1.161 h 8.622 z"
           style="fill:#fbd15b;fill-opacity:1;fill-rule:nonzero;stroke:none"
           id="path98" />
        <path
           d="m 158.923,343.589 h -11.662 v -1.162 h 11.662 z"
           style="fill:#fbd15b;fill-opacity:1;fill-rule:nonzero;stroke:none"
           id="path100" />
        <path
           d="m 176.778,343.589 h -11.662 v -1.162 h 11.662 z"
           style="fill:#606bf1;fill-opacity:1;fill-rule:nonzero;stroke:none"
           id="path102" />
        <path
           d="m 195.94,343.589 h -11.662 v -1.162 h 11.662 z"
           style="fill:#ff8578;fill-opacity:1;fill-rule:nonzero;stroke:none"
           id="path104" />
        <path
           d="m 177.132,349.845 h -16.353 v -1.162 h 16.353 z"
           style="fill:#fbd15b;fill-opacity:1;fill-rule:nonzero;stroke:none"
           id="path106" />
        <path
           d="m 154.61,349.845 h -16.353 v -1.162 h 16.353 z"
           style="fill:#606bf1;fill-opacity:1;fill-rule:nonzero;stroke:none"
           id="path108" />
        <path
           d="m 130.021,381.929 h -1.486 v 1.486 h 1.486 z"
           style="fill:#f9fbfc;fill-opacity:1;fill-rule:nonzero;stroke:none"
           id="path110" />
        <path
           d="m 130.021,374.35 h -1.486 v 3.032 h 1.486 z m 0,-7.58 h -1.486 v 3.032 h 1.486 z m 0,-7.579 h -1.486 v 3.032 h 1.486 z m 0,-7.579 h -1.486 v 3.032 h 1.486 z m 0,-7.579 h -1.486 v 3.032 h 1.486 z m 0,-7.58 h -1.486 v 3.031 h 1.486 z m 0,-7.579 h -1.486 v 3.031 h 1.486 z"
           style="fill:#f9fbfc;fill-opacity:1;fill-rule:nonzero;stroke:none"
           id="path112" />
        <path
           d="m 130.021,322.839 h -1.486 v 1.487 h 1.486 z"
           style="fill:#f9fbfc;fill-opacity:1;fill-rule:nonzero;stroke:none"
           id="path114" />
        <path
           d="m 319.106,370.71 h -80.33 v 49.515 h 80.33 z"
           style="fill:#ff8578;fill-opacity:1;fill-rule:nonzero;stroke:none"
           id="path116" />
        <g
           id="g118"
           transform="translate(269.9746,400.3096)">
          <path
             d="M 0,0 -9.558,-4.079 0,-8.098 l -1.251,-2.888 -11.461,5.121 v 3.543 l 11.461,5.151 z"
             style="fill:#f9fbfc;fill-opacity:1;fill-rule:nonzero;stroke:none"
             id="path120" />
        </g>
        <g
           id="g122"
           transform="translate(284.0596,409.7471)">
          <path
             d="m 0,0 -6.937,-26.646 -3.304,0.774 6.967,26.616 z"
             style="fill:#f9fbfc;fill-opacity:1;fill-rule:nonzero;stroke:none"
             id="path124" />
        </g>
        <g
           id="g126"
           transform="translate(300.6465,397.9873)">
          <path
             d="m 0,0 v -3.543 l -11.463,-5.121 -1.25,2.888 9.527,4.019 -9.527,4.079 1.25,2.829 z"
             style="fill:#f9fbfc;fill-opacity:1;fill-rule:nonzero;stroke:none"
             id="path128" />
        </g>
        <path
           d="M 362.101,291.704 H 316.348 V 324.3 h 45.753 z"
           style="fill:#606bf1;fill-opacity:1;fill-rule:nonzero;stroke:none"
           id="path130" />
        <g
           id="g132"
           transform="translate(335.4863,317.2627)">
          <path
             d="m 0,0 c -1.472,0 -1.963,-0.397 -1.963,-1.495 v -4.906 c 0,-1.915 -0.794,-2.499 -2.126,-2.873 1.332,-0.351 2.126,-0.935 2.126,-2.827 v -4.906 c 0,-1.097 0.514,-1.495 1.963,-1.495 v -2.149 c -3.715,0 -4.767,1.192 -4.767,3.668 v 4.649 c 0,1.331 -0.349,1.845 -1.564,1.845 v 2.453 c 1.215,0 1.564,0.537 1.564,1.869 v 4.649 c 0,2.499 1.052,3.667 4.767,3.667 z"
             style="fill:#f1f2f2;fill-opacity:1;fill-rule:nonzero;stroke:none"
             id="path134" />
        </g>
        <g
           id="g136"
           transform="translate(347.7275,315.7446)">
          <path
             d="M 0,0 V -4.649 C 0,-5.98 0.351,-6.518 1.589,-6.518 V -8.971 C 0.351,-8.971 0,-9.485 0,-10.816 v -4.649 c 0,-2.476 -1.051,-3.668 -4.765,-3.668 v 2.149 c 1.449,0 1.962,0.398 1.962,1.495 v 4.906 c 0,1.892 0.794,2.477 2.126,2.827 -1.332,0.374 -2.126,0.958 -2.126,2.873 v 4.906 c 0,1.098 -0.49,1.495 -1.962,1.495 V 3.667 C -1.051,3.667 0,2.5 0,0"
             style="fill:#f1f2f2;fill-opacity:1;fill-rule:nonzero;stroke:none"
             id="path138" />
        </g>
        <path
           d="m 140.513,378.792 h -51.33 v 34.332 h 51.33 z"
           style="fill:#fbd15b;fill-opacity:1;fill-rule:nonzero;stroke:none"
           id="path140" />
        <g
           id="g142"
           transform="translate(116.9839,393.8184)">
          <path
             d="m 0,0 c -2.323,-2.323 -6.102,-2.322 -8.425,0 -2.323,2.323 -2.323,6.102 0,8.425 2.323,2.323 6.102,2.323 8.425,0 C 2.323,6.102 2.323,2.323 0,0 m -10.813,9.45 c -2.451,-3.067 -2.414,-7.549 0.084,-10.578 2.837,-3.443 7.697,-3.997 11.189,-1.669 l 5.388,-5.387 c 0.227,-0.228 0.595,-0.228 0.823,0 l 1.514,1.514 c 0.227,0.227 0.227,0.595 0,0.823 L 2.797,-0.46 c 2.182,3.272 1.833,7.745 -1.052,10.63 -3.51,3.509 -9.37,3.269 -12.558,-0.72"
             style="fill:#f9fbfc;fill-opacity:1;fill-rule:nonzero;stroke:none"
             id="path144" />
        </g>
      </g>
    </g>
    <g
       id="g146">
      <g
         id="g148">
        <g
           id="g154">
          <g
             id="g156">
            <path
               d="m 283.851,321.138 -14.508,-8.116 v -5.992 c -1.422,0.16 -2.764,0.064 -4.01,-0.191 v 0 l 0.016,-0.08 c 0,0 -2.141,-12.654 10.641,-12.654 v 0 c 12.174,0 13.724,11.839 13.835,12.973 v 0 c -3.147,0.352 -5.447,0.08 -5.447,0.08 v 0 13.98 z"
               style="fill:url(#radialGradient162);stroke:none"
               id="path164" />
          </g>
        </g>
      </g>
    </g>
    <g
       id="g166">
      <g
         id="g168">
        <g
           id="g174">
          <g
             id="g176">
            <path
               d="m 252.456,339.035 c -1.581,-8.368 -0.061,-24.736 7.841,-30.385 v 0 c 2.049,-1.466 12.794,-0.194 14.54,1.334 v 0 c 2.574,2.254 5.154,4.502 7.734,6.748 v 0 c 0.57,0.497 1.145,0.998 1.591,1.607 v 0 c 0.626,0.852 0.972,1.875 1.277,2.887 v 0 c 1.783,5.924 3.096,12.426 1.701,18.573 v 0 c -0.748,3.299 -2.304,5.998 -4.36,8.084 v 0 c -3.553,3.604 -8.14,5.264 -12.681,5.263 v 0 c -8.059,-0.001 -15.965,-5.231 -17.643,-14.111"
               style="fill:url(#radialGradient182);stroke:none"
               id="path184" />
          </g>
        </g>
      </g>
    </g>
    <g
       id="g186">
      <g
         id="g188"
         clip-path="url(#clipPath192)">
        <g
           id="g194"
           transform="translate(278.3418,330.1177)">
          <path
             d="M 0,0 C 0.105,1.336 1.479,2.799 2.858,1.932 4.286,1.035 3.95,-1.338 3.358,-2.645 2.895,-3.668 1.343,-4.79 0.292,-3.837 c -0.881,0.798 0.487,1.739 0.532,2.468 0.041,0.656 -1.271,1.126 -0.734,1.828"
             style="fill:#f7b094;fill-opacity:1;fill-rule:nonzero;stroke:none"
             id="path196" />
        </g>
        <g
           id="g198"
           transform="translate(278.5947,323.939)">
          <path
             d="m 0,0 c 1.44,-0.433 3.88,0.666 4.497,2.672 0.617,2.006 0.551,4.296 0.551,4.296 0,0 0.725,-1.816 0.352,-4.738 C 5.027,-0.691 4.004,-3.474 1.711,-3.511 -0.582,-3.547 0,0 0,0"
             style="fill:#f7b094;fill-opacity:1;fill-rule:nonzero;stroke:none"
             id="path200" />
        </g>
        <g
           id="g202"
           transform="translate(276.8281,326.0181)">
          <path
             d="m 0,0 c -0.047,-0.023 -0.1,-0.04 -0.161,-0.048 -0.892,-0.125 -1.248,0.954 -1.38,1.629 -0.31,1.577 -0.261,3.173 -0.315,4.768 -0.013,0.4 0.018,0.899 -0.146,1.275 -0.501,1.147 -1.835,1.892 -2.243,3.077 -0.474,1.378 0.864,2.753 0.333,4.261 -0.813,2.311 -3.78,2.842 -5.926,2.817 -3.221,-0.038 -6.36,-0.635 -9.538,-1.128 -3.355,-0.521 -7.644,-1.015 -10.6,1.107 -3.563,2.557 -5.051,9.221 -2.392,12.87 1.449,1.99 4.198,3.049 6.606,3.104 2.553,0.059 4.71,-1.463 7.052,-2.229 1.865,-0.61 3.669,1.174 5.412,1.523 2.192,0.437 3.122,-1.955 5.061,-2.021 1.883,-0.063 3.73,1.408 5.561,1.742 3.651,0.667 3.436,-3 5.885,-4.252 1.522,-0.778 3.489,-0.308 5.029,-1.099 1.17,-0.6 1.334,-1.656 1.589,-2.853 0.221,-1.034 0.233,-2.228 0.573,-3.211 0.307,-0.884 1.049,-1.442 1.628,-2.133 0.632,-0.755 1.035,-1.636 1.356,-2.581 0.711,-2.098 0.869,-4.361 0.675,-6.557 C 13.733,6.375 12.547,2.746 11.315,-0.726 10.517,-2.979 10.22,-5.324 8.991,-7.456 8.661,-8.029 7.195,-9.703 6.649,-8.456 6.533,-8.189 6.551,-7.885 6.571,-7.594 6.733,-5.271 8.896,9.693 3.227,7.896 2.037,7.518 1.239,6.528 0.795,5.398 0.265,4.047 0.228,2.686 0.295,1.258 0.305,1.054 0.31,0.849 0.302,0.645 0.292,0.381 0.226,0.113 0,0"
             style="fill:#3d3d7a;fill-opacity:1;fill-rule:nonzero;stroke:none"
             id="path204" />
        </g>
        <g
           id="g206"
           transform="translate(269.3428,308.4014)">
          <path
             d="m 0,0 c 6.446,1.036 10.699,6.128 10.699,6.128 0,0 -1.738,-8.582 -11.086,-9.035 z"
             style="fill:#f7b094;fill-opacity:1;fill-rule:nonzero;stroke:none"
             id="path208" />
        </g>
        <g
           id="g210"
           transform="translate(279.9238,191.4297)">
          <path
             d="m 0,0 h 9.227 v -88.525 c 0,-0.898 -0.729,-1.626 -1.626,-1.626 H 1.626 C 0.728,-90.151 0,-89.423 0,-88.525 Z"
             style="fill:#0a2033;fill-opacity:1;fill-rule:nonzero;stroke:none"
             id="path212" />
        </g>
        <g
           id="g214"
           transform="translate(259.166,190.1641)">
          <path
             d="m 0,0 h 50.742 v -1.385 c 0,-3.487 -2.827,-6.314 -6.314,-6.314 H 6.313 C 2.827,-7.699 0,-4.872 0,-1.385 Z"
             style="fill:#30475e;fill-opacity:1;fill-rule:nonzero;stroke:none"
             id="path216" />
        </g>
        <g
           id="g218"
           transform="translate(279.9238,111.7744)">
          <path
             d="m 0,0 h 9.227 v -20.514 c 0,-0.898 -0.729,-1.626 -1.626,-1.626 H 1.626 C 0.728,-22.14 0,-21.412 0,-20.514 Z"
             style="fill:#0a2033;fill-opacity:1;fill-rule:nonzero;stroke:none"
             id="path220" />
        </g>
        <g
           id="g222"
           transform="translate(236.6572,95.0352)">
          <path
             d="m 0,0 c 0,-2.982 2.418,-5.4 5.4,-5.4 2.982,0 5.4,2.418 5.4,5.4 0,2.982 -2.418,5.399 -5.4,5.399 C 2.418,5.399 0,2.982 0,0"
             style="fill:#0a2033;fill-opacity:1;fill-rule:nonzero;stroke:none"
             id="path224" />
        </g>
        <g
           id="g226"
           transform="translate(321.6172,95.0352)">
          <path
             d="M 0,0 C 0,-2.982 2.417,-5.4 5.399,-5.4 8.382,-5.4 10.8,-2.982 10.8,0 10.8,2.982 8.382,5.399 5.399,5.399 2.417,5.399 0,2.982 0,0"
             style="fill:#0a2033;fill-opacity:1;fill-rule:nonzero;stroke:none"
             id="path228" />
        </g>
        <path
           d="m 275.256,102.43 h 18.562 v 16.221 h -18.562 z"
           style="fill:#30475e;fill-opacity:1;fill-rule:nonzero;stroke:none"
           id="path230" />
        <g
           id="g232"
           transform="translate(236.6572,98.6133)">
          <path
             d="m 0,0 h 95.76 v 1.882 c 0,3.177 -2.575,5.751 -5.752,5.751 H 5.751 C 2.575,7.633 0,5.059 0,1.882 Z"
             style="fill:#fbd15b;fill-opacity:1;fill-rule:nonzero;stroke:none"
             id="path234" />
        </g>
        <path
           d="m 284.537,120.098 h -3.2 v 60.548 h 3.2 z"
           style="fill:#30475e;fill-opacity:1;fill-rule:nonzero;stroke:none"
           id="path236" />
        <g
           id="g238"
           transform="translate(320.7861,255.5972)">
          <path
             d="m 0,0 c -2.214,0.07 -4.014,-1.763 -3.886,-3.974 0.634,-10.989 -1.696,-37.8 -11.932,-46.947 -12.516,-11.185 -47.99,-9.662 -47.99,-9.662 0,0 -5.858,-7.189 5.859,-8.787 11.717,-1.597 44.736,-0.533 52.724,6.923 7.733,7.218 12.324,26.127 8.864,59.039 C 3.44,-1.521 1.897,-0.06 0,0"
             style="fill:#fbd15b;fill-opacity:1;fill-rule:nonzero;stroke:none"
             id="path240" />
        </g>
      </g>
    </g>
    <g
       id="g242">
      <g
         id="g244">
        <g
           id="g250">
          <g
             id="g252">
            <path
               d="m 241.383,114.457 4.234,-9.65 12.925,5.672 -4.218,9.619 z"
               style="fill:url(#radialGradient258);stroke:none"
               id="path260" />
          </g>
        </g>
      </g>
    </g>
    <g
       id="g262">
      <g
         id="g264"
         clip-path="url(#clipPath268)">
        <g
           id="g270"
           transform="translate(315.2773,227.001)">
          <path
             d="m 0,0 c -0.799,-1.598 -58.229,-0.032 -63.653,-0.527 0,0 -35.15,-16.777 -40.199,-32.482 -0.511,-1.582 -0.655,-3.675 -0.495,-6.168 1.406,-22.112 26.586,-75.06 26.586,-75.06 l 3.866,1.693 12.942,5.641 1.838,0.799 c 0,0 -19.972,59.514 -15.978,62.709 3.994,3.196 49.258,11.184 64.963,15.434 C 5.592,-23.694 0,0 0,0"
             style="fill:#56548c;fill-opacity:1;fill-rule:nonzero;stroke:none"
             id="path272" />
        </g>
      </g>
    </g>
    <g
       id="g274">
      <g
         id="g276">
        <g
           id="g282">
          <g
             id="g284">
            <path
               d="m 191.949,103.172 h 14.109 l -1.01,14.451 -14.109,0.032 z"
               style="fill:url(#radialGradient290);stroke:none"
               id="path292" />
          </g>
        </g>
      </g>
    </g>
    <g
       id="g294">
      <g
         id="g296"
         clip-path="url(#clipPath300)">
        <g
           id="g302"
           transform="translate(251.3369,226.9687)">
          <path
             d="m 0,0 -0.512,-0.224 c 0,0 -58.843,-8.26 -68.429,-24.764 -6.232,-10.738 5.829,-89.19 5.829,-89.19 l 20.818,-0.048 c 0,0 -3.113,65.352 -2.075,68.995 1.167,4.154 3.164,5.656 3.963,6.086 -0.16,2.494 -0.017,4.586 0.495,6.168 5.049,15.706 40.198,32.482 40.198,32.482 C 0.176,-0.416 0.08,-0.24 0,0"
             style="fill:#3d3d7a;fill-opacity:1;fill-rule:nonzero;stroke:none"
             id="path304" />
        </g>
        <g
           id="g306"
           transform="translate(308.1729,281.3389)">
          <path
             d="m 0,0 -3.946,-0.543 c 0,0 -0.959,-10.641 -3.308,-21.282 l -49.161,-18.661 -0.672,-3.563 c -0.207,0.016 -0.415,0.031 -0.606,0.048 0.015,-0.735 0.015,-1.454 0.047,-2.125 0.112,-4.106 0.383,-7.062 0.815,-8.244 0.08,-0.24 0.176,-0.416 0.288,-0.495 1.335,-1.089 18.723,1.021 37.521,-5.881 C -2.72,-66.732 6.418,-73.271 6.84,-72.393 11.964,-61.741 2.636,-19.939 0,0"
             style="fill:#ff8578;fill-opacity:1;fill-rule:nonzero;stroke:none"
             id="path308" />
        </g>
        <g
           id="g310"
           transform="translate(303.0439,256.958)">
          <path
             d="m 0,0 c -1.31,-6.295 -4.697,-18.821 -11.344,-20.499 -8.676,-2.205 -25.451,-2.093 -41.173,-1.246 -0.032,0.671 -0.032,1.39 -0.047,2.125 0.191,-0.017 0.399,-0.032 0.606,-0.048 l 0.672,3.563 49.161,18.661 c 2.349,10.641 3.308,21.282 3.308,21.282 0,0 0,-0.064 0.015,-0.176 C 1.294,22.016 1.966,9.298 0,0"
             style="fill:#f4675d;fill-opacity:1;fill-rule:nonzero;stroke:none"
             id="path312" />
        </g>
        <g
           id="g314"
           transform="translate(253.7656,297.0444)">
          <path
             d="m 0,0 c -0.879,-1.598 -2.142,-18.693 -2.828,-35.661 l -10.05,9.379 C -8.612,-18.022 0,0 0,0"
             style="fill:#f4675d;fill-opacity:1;fill-rule:nonzero;stroke:none"
             id="path316" />
        </g>
        <g
           id="g318"
           transform="translate(247.7422,248.9854)">
          <path
             d="m 0,0 c -8.484,-1.47 -16.281,-2.732 -16.281,-2.732 l -0.016,-0.415 c -9.442,7.541 -23.807,28.902 -23.807,28.902 0,0 4.298,5.161 5.37,6.519 0.159,0.207 23.582,-15.914 24.78,-15.77 0.304,0.032 1.502,2.141 3.1,5.273 L 3.195,12.398 C 3.035,8.356 2.907,4.33 2.827,0.511 1.885,0.335 0.942,0.175 0,0"
             style="fill:#f7b094;fill-opacity:1;fill-rule:nonzero;stroke:none"
             id="path320" />
        </g>
      </g>
    </g>
    <g
       id="g322">
      <g
         id="g324">
        <g
           id="g330">
          <g
             id="g332">
            <path
               d="m 205.69,239.255 h 25.563 l 0.208,6.998 -6.727,-0.671 c 0,0 -2.668,3.659 -9.585,3.659 v 0 c -6.919,0 -9.459,-9.986 -9.459,-9.986"
               style="fill:url(#radialGradient338);stroke:none"
               id="path340" />
          </g>
        </g>
      </g>
    </g>
    <g
       id="g342">
      <g
         id="g344"
         clip-path="url(#clipPath348)">
        <g
           id="g350"
           transform="translate(212.8154,281.4189)">
          <path
             d="m 0,0 0.192,-0.16 c -1.071,-1.358 -5.369,-6.519 -5.369,-6.519 l -2.668,1.886 c 0,0 -2.939,-1.79 -6.358,0.08 -3.564,1.933 -1.359,6.549 -1.176,7.096 -0.69,-0.195 -4.96,-3.645 -5.631,-3.278 -0.671,0.368 -1.166,1.582 3.612,6.295 4.76,4.713 11.247,-1.342 11.439,-1.342 z"
             style="fill:#f7b094;fill-opacity:1;fill-rule:nonzero;stroke:none"
             id="path352" />
        </g>
        <g
           id="g354"
           transform="translate(199.168,277.5073)">
          <path
             d="m 0,0 c 0,0 -1.03,-1.929 0.801,-2.767 1.831,-0.838 5.393,-1.443 6.924,-1.296 1.53,0.147 2.747,2.289 2.747,2.289 L 5.837,2.575 H 2.132 Z"
             style="fill:#f7b094;fill-opacity:1;fill-rule:nonzero;stroke:none"
             id="path356" />
        </g>
        <g
           id="g358"
           transform="translate(198.8936,276.5605)">
          <path
             d="M 0,0 C 0.274,0.947 2.906,0.442 4.537,0.403 5.739,0.375 6.397,0.689 6.77,1.604 7.141,2.521 5.396,3.979 5.053,3.521 4.709,3.064 5.682,2.419 5.711,1.812 5.739,1.204 3.994,1.004 2.649,1.004 1.305,1.004 -1.016,0.653 -1.016,0.653 Z"
             style="fill:#e8987c;fill-opacity:1;fill-rule:nonzero;stroke:none"
             id="path360" />
        </g>
      </g>
    </g>
    <g
       id="g362">
      <g
         id="g364">
        <g
           id="g370">
          <g
             id="g372">
            <path
               d="m 267.682,252.835 c -2.925,-0.767 -9.987,-2.092 -17.113,-3.339 v 0 c -0.942,-0.175 -1.885,-0.335 -2.827,-0.511 v 0 c -8.484,-1.47 -16.281,-2.732 -16.281,-2.732 v 0 l -0.016,-0.415 v -0.271 l -0.192,-6.312 v -1.602 c 0,0 8.5,0.436 19.221,-0.315 v 0 c 15.003,-1.07 34.351,-1.71 40.757,1.31 v 0 c 3.004,1.422 5.401,6.087 7.286,11.839 v 0 c -0.032,-0.016 -0.064,-0.032 -0.095,-0.048 v 0 l -25.037,8.867 c -1.822,-3.403 -3.771,-5.96 -5.703,-6.471"
               style="fill:url(#radialGradient378);stroke:none"
               id="path380" />
          </g>
        </g>
      </g>
    </g>
    <g
       id="g382">
      <g
         id="g384"
         clip-path="url(#clipPath388)">
        <g
           id="g390"
           transform="translate(273.3848,259.3066)">
          <path
             d="m 0,0 25.037,-8.868 -1.134,-3.345 -24.779,10.63 z"
             style="fill:#f7b094;fill-opacity:1;fill-rule:nonzero;stroke:none"
             id="path392" />
        </g>
        <g
           id="g394"
           transform="translate(273.3848,259.3066)">
          <path
             d="m 0,0 c -1.821,-3.403 -3.771,-5.96 -5.703,-6.471 -2.924,-0.767 -9.986,-2.093 -17.112,-3.339 0.08,3.818 0.208,7.845 0.368,11.887 0.686,16.967 1.949,34.063 2.828,35.661 1.437,2.668 5.368,8.468 11.567,9.794 l 0.016,-0.08 c 0,0 -2.141,-12.654 10.64,-12.654 12.175,0 13.725,11.839 13.836,12.973 6.264,-0.703 15.867,-3.834 17.193,-16.424 0.271,-2.493 0.654,-5.688 1.15,-9.315 l -3.947,-0.543 c 0,0 -1.598,-17.735 -5.703,-30.309 -0.032,-0.015 -0.065,-0.032 -0.096,-0.048 z"
             style="fill:#ff8578;fill-opacity:1;fill-rule:nonzero;stroke:none"
             id="path396" />
        </g>
        <g
           id="g398">
          <g
             id="g400" />
          <g
             id="g412">
            <g
               clip-path="url(#clipPath404)"
               id="g410">
              <g
                 transform="translate(273.126,261.6138)"
                 id="g408">
                <path
                   d="M 0,0 9.997,24.201 2.633,-0.978 Z"
                   style="fill:#6d4b35;fill-opacity:1;fill-rule:nonzero;stroke:none"
                   id="path406" />
              </g>
            </g>
          </g>
        </g>
        <g
           id="g414"
           transform="translate(289.8252,307.0781)">
          <path
             d="m 0,0 h -5.447 c 0,0 -7.754,-8.513 -12.738,-8.513 -4.984,0 -2.297,8.465 -2.297,8.465 h -2.432 c -6.984,0 -12.862,-5.245 -13.653,-12.185 -0.09,-0.795 -0.173,-1.549 -0.244,-2.231 -0.533,-5.15 20.33,-8.898 20.33,-8.898 l 10.742,0.601 6.523,12.727 1.3,5.212 z"
             style="fill:#ff8578;fill-opacity:1;fill-rule:nonzero;stroke:none"
             id="path416" />
        </g>
        <g
           id="g418"
           transform="translate(224.083,93.7363)">
          <path
             d="m 0,0 c 0.485,-2.603 2.29,-4.453 4.893,-3.968 l 34.701,6.473 c 0.878,0.163 1.456,1.008 1.293,1.886 L 40.313,7.47 c 0,0 -36.497,-6.387 -40.331,-7.45 z"
             style="fill:#f1f2f2;fill-opacity:1;fill-rule:nonzero;stroke:none"
             id="path420" />
        </g>
        <g
           id="g422"
           transform="translate(234.4072,102.4736)">
          <path
             d="m 0,0 c 0.361,0.314 0.71,0.626 1.072,0.939 0.696,0.623 1.381,1.23 2.04,1.818 0.348,0.311 0.697,0.623 1.019,0.915 0.634,0.567 1.23,1.099 1.765,1.577 0.385,0.347 0.745,0.675 1.068,0.968 0.593,0.531 1.077,0.965 1.417,1.269 0.294,0.263 0.73,0.276 1.032,0.022 1.427,-1.199 6.037,-3.942 14.389,1.225 0.395,0.246 0.921,0.118 1.135,-0.295 l 5.051,-9.706 c 0,0 -36.496,-6.386 -40.33,-7.45 C -9.081,-7.932 -4.423,-3.9 0,0"
             style="fill:#3d3d7a;fill-opacity:1;fill-rule:nonzero;stroke:none"
             id="path424" />
        </g>
        <g
           id="g426"
           transform="translate(169.4316,94.0771)">
          <path
             d="m 0,0 c 0.065,-2.647 1.551,-4.762 4.198,-4.696 l 35.289,0.861 c 0.893,0.022 1.599,0.763 1.577,1.655 l -0.077,3.131 c 0,0 -37.047,-0.49 -41.001,-0.93 z"
             style="fill:#f1f2f2;fill-opacity:1;fill-rule:nonzero;stroke:none"
             id="path428" />
        </g>
        <g
           id="g430"
           transform="translate(181.0156,101.0576)">
          <path
             d="M 0,0 C 0.408,0.253 0.801,0.505 1.209,0.757 1.995,1.262 2.768,1.751 3.512,2.226 3.905,2.478 4.299,2.729 4.664,2.967 5.38,3.427 6.054,3.856 6.658,4.242 7.094,4.524 7.5,4.791 7.865,5.027 8.535,5.458 9.083,5.81 9.467,6.056 9.799,6.269 10.232,6.211 10.49,5.912 11.707,4.501 15.822,1.06 24.89,4.83 25.319,5.009 25.817,4.799 25.964,4.356 l 3.439,-10.385 c 0,0 -37.047,-0.491 -41.001,-0.93 C -10.229,-6.383 -4.987,-3.146 0,0"
             style="fill:#3d3d7a;fill-opacity:1;fill-rule:nonzero;stroke:none"
             id="path432" />
        </g>
        <g
           id="g434"
           transform="translate(144.3291,237.6533)">
          <path
             d="M 0,0 -18.847,50.264 H 34.808 L 53.653,0 Z"
             style="fill:#abb5ba;fill-opacity:1;fill-rule:nonzero;stroke:none"
             id="path436" />
        </g>
        <g
           id="g438"
           transform="translate(201.2998,237.6533)">
          <path
             d="M 0,0 H -3.317 L -22.163,50.264 -19.151,50.13 -1.72,4.634 Z"
             style="fill:#8495a0;fill-opacity:1;fill-rule:nonzero;stroke:none"
             id="path440" />
        </g>
        <g
           id="g442"
           transform="translate(200.2588,237.6533)">
          <path
             d="M 0,0 H 35.453 L 35.356,3.169 H -0.726"
             style="fill:#8495a0;fill-opacity:1;fill-rule:nonzero;stroke:none"
             id="path444" />
        </g>
        <path
           d="m 351.302,87.834 h -8.536 v 140.233 h 8.536 z"
           style="fill:#8495a0;fill-opacity:1;fill-rule:nonzero;stroke:none"
           id="path446" />
        <path
           d="m 304.968,87.834 h -8.536 v 140.233 h 8.536 z"
           style="fill:#abb5ba;fill-opacity:1;fill-rule:nonzero;stroke:none"
           id="path448" />
        <path
           d="m 156.529,87.834 h -8.536 v 140.233 h 8.536 z"
           style="fill:#8495a0;fill-opacity:1;fill-rule:nonzero;stroke:none"
           id="path450" />
        <path
           d="m 110.196,87.834 h -8.536 v 140.233 h 8.536 z"
           style="fill:#abb5ba;fill-opacity:1;fill-rule:nonzero;stroke:none"
           id="path452" />
        <g
           id="g454"
           transform="translate(359.8437,227.5352)">
          <path
             d="m 0,0 h -266.361 c -2.291,0 -4.149,1.857 -4.149,4.148 V 5.97 c 0,2.291 1.858,4.148 4.149,4.148 L 0,10.118 c 2.291,0 4.148,-1.857 4.148,-4.148 V 4.148 C 4.148,1.857 2.291,0 0,0"
             style="fill:#141b56;fill-opacity:1;fill-rule:nonzero;stroke:none"
             id="path456" />
        </g>
        <g
           id="g458"
           transform="translate(134.4409,282.6343)">
          <path
             d="M 0,0 0.918,-2.448 H 11.606 L 10.688,0 Z"
             style="fill:#8495a0;fill-opacity:1;fill-rule:nonzero;stroke:none"
             id="path460" />
        </g>
        <g
           id="g462"
           transform="translate(240.8877,270.7622)">
          <path
             d="M 0,0 -0.768,-1.482 10.05,-12.661 v 3.282 z"
             style="fill:#e8987c;fill-opacity:1;fill-rule:nonzero;stroke:none"
             id="path464" />
        </g>
        <path
           d="M 461.66,79.774 H 29.744 v 9.862 H 461.66 Z"
           style="fill:#a5b7c6;fill-opacity:1;fill-rule:nonzero;stroke:none"
           id="path466" />
      </g>
    </g>
    <g
       id="g468">
      <g
         id="g470">
        <g
           id="g476">
          <g
             id="g478">
            <path
               d="m 373.036,174.096 c -0.376,-3.221 -0.661,-6.451 -1.013,-9.674 v 0 c -0.324,-2.985 -1.333,-6.283 -1.363,-9.241 v 0 c -0.04,-3.733 0.5,-10.258 2.756,-13.341 v 0 c 1.724,-2.355 4.588,-4.411 7.555,-3.807 v 0 c 11.013,2.246 10.496,16.427 12.212,24.752 v 0 c 0.913,4.434 1.544,9.002 2.657,13.385 v 0 c 0.753,2.965 1.767,6.093 0.929,9.189 v 0 c -0.474,1.747 -1.13,3.506 -1.858,5.175 v 0 c -1.595,3.658 -3.406,6.883 -4.199,10.693 v 0 c -10.257,-5.795 -16.321,-15.523 -17.676,-27.131"
               style="fill:url(#linearGradient484);stroke:none"
               id="path486" />
          </g>
        </g>
      </g>
    </g>
    <g
       id="g488">
      <g
         id="g490"
         clip-path="url(#clipPath494)">
        <g
           id="g496"
           transform="translate(379.1064,137.7529)">
          <path
             d="M 0,0 C 0.078,0.698 0.164,1.396 0.257,2.094 1.572,2.098 2.942,2.846 4.047,3.418 5.963,4.411 7.517,5.835 9.021,7.357 9.103,7.438 8.967,7.569 8.881,7.498 7.38,6.237 5.823,5.016 4.037,4.183 3.041,3.719 1.585,2.96 0.356,2.813 0.473,3.646 0.601,4.478 0.738,5.308 2.108,5.476 3.364,6.376 4.524,7.064 6.496,8.234 8.192,9.748 9.95,11.207 9.971,11.224 9.946,11.254 9.926,11.238 7.236,9.285 4.24,6.505 0.838,5.896 c 0.181,1.041 0.371,2.078 0.59,3.108 0.01,0.054 0.023,0.107 0.034,0.161 3.937,0.996 6.601,4.084 9.615,6.58 0.049,0.041 -0.003,0.124 -0.055,0.084 -2.968,-2.306 -5.758,-4.936 -9.428,-6.056 0.318,1.475 0.649,2.945 0.982,4.413 3.563,1.314 6.407,3.401 8.898,6.308 0.042,0.049 -0.027,0.117 -0.073,0.07 -2.577,-2.682 -5.415,-4.222 -8.682,-5.749 0.329,1.454 0.656,2.907 0.966,4.365 1.541,0.757 3.162,1.218 4.585,2.216 1.404,0.982 2.664,2.154 3.568,3.617 0.048,0.077 -0.067,0.149 -0.119,0.076 -1.993,-2.866 -4.998,-3.758 -7.903,-5.265 0.284,1.359 0.547,2.721 0.784,4.091 3.236,1.782 6.753,3.434 8.587,6.849 0.018,0.034 -0.03,0.067 -0.05,0.034 -1.944,-3.138 -5.339,-4.489 -8.422,-6.197 0.04,0.244 0.085,0.486 0.123,0.731 0.198,1.271 0.384,2.543 0.566,3.815 1.86,0.745 3.632,1.796 5.306,2.886 1.187,0.774 2.456,1.54 3.233,2.754 0.049,0.076 -0.062,0.155 -0.115,0.081 -1.735,-2.487 -5.537,-3.925 -8.345,-5.169 0.183,1.285 0.364,2.571 0.546,3.856 3.116,1.885 6.782,2.927 8.699,6.326 0.056,0.1 -0.091,0.193 -0.155,0.095 -1.985,-3.103 -5.48,-4.06 -8.458,-5.821 0.114,0.796 0.231,1.592 0.351,2.387 3.364,1.237 7.276,4.054 9.051,7.095 0.097,0.168 -0.145,0.323 -0.254,0.163 -1.81,-2.669 -5.446,-5.57 -8.699,-6.626 0.2,1.289 0.408,2.576 0.637,3.86 0.023,0.035 0.039,0.073 0.05,0.114 1.511,0.445 3.004,1.51 4.308,2.315 1.572,0.97 3.072,2.097 4.05,3.691 0.109,0.176 -0.178,0.339 -0.28,0.159 -1.494,-2.667 -5.041,-4.456 -7.976,-5.474 0.085,0.469 0.17,0.937 0.263,1.405 0.139,0.699 0.281,1.399 0.424,2.098 1.202,0.83 2.729,1.227 3.936,2.104 1.048,0.762 1.964,1.68 2.864,2.61 0.09,0.092 -0.043,0.235 -0.138,0.146 -1.218,-1.144 -2.471,-2.243 -3.953,-3.036 -0.829,-0.444 -1.774,-0.697 -2.577,-1.184 0.234,1.143 0.469,2.287 0.692,3.431 0.015,0.002 0.029,0.006 0.043,0.009 0.014,-0.003 0.029,-0.006 0.043,-0.009 0.083,-0.016 0.15,0.014 0.197,0.062 1.634,0.412 2.885,1.819 3.984,3.018 0.026,0.029 -0.014,0.07 -0.042,0.043 -1.153,-1.065 -2.463,-2.245 -4.007,-2.703 -0.006,0.002 -0.01,0.006 -0.016,0.007 -0.04,0.006 -0.078,0.013 -0.117,0.018 0.179,0.932 0.349,1.865 0.504,2.8 0.118,0.021 0.222,0.122 0.194,0.24 0.867,0.581 1.654,1.323 2.392,2.048 0.056,0.055 -0.022,0.14 -0.081,0.089 -0.769,-0.662 -1.526,-1.208 -2.391,-1.686 0.305,1.931 0.542,3.874 0.651,5.836 0.01,0.181 -0.266,0.183 -0.281,0.004 C 9.765,57.301 9.491,55.431 9.166,53.57 8.265,54.753 7.261,55.971 6.71,57.325 6.682,57.396 6.57,57.367 6.595,57.291 6.864,56.45 7.329,55.715 7.789,54.967 8.201,54.298 8.53,53.52 9.056,52.925 8.874,51.926 8.678,50.93 8.472,49.935 7.376,50.11 6.37,50.318 5.466,51.112 4.357,52.083 3.728,53.404 3.618,54.869 3.604,55.049 3.32,55.048 3.337,54.868 3.462,53.506 4.004,52.225 4.936,51.209 5.916,50.141 7.066,49.8 8.387,49.526 8.146,48.377 7.898,47.229 7.646,46.082 6.65,46.679 5.726,47.46 4.828,48.175 3.38,49.329 2.524,50.718 1.268,52.018 1.142,52.147 0.937,51.96 1.061,51.827 2.238,50.575 3.035,49.219 4.375,48.094 5.34,47.284 6.404,46.269 7.556,45.669 7.542,45.608 7.528,45.548 7.516,45.487 7.503,45.476 7.489,45.467 7.478,45.455 7.389,45.369 7.398,45.271 7.452,45.198 7.21,44.1 6.969,43.001 6.736,41.899 6.722,41.831 6.71,41.762 6.695,41.692 4.134,42.865 0.306,44.903 -0.034,47.875 -0.066,48.157 -0.488,48.079 -0.423,47.79 0.335,44.426 4.031,42.936 6.578,41.102 6.327,39.856 6.097,38.608 5.886,37.356 4.23,37.926 2.657,38.63 1.269,39.734 c -1.264,1.005 -3.051,2.217 -3.621,3.774 -0.017,0.049 -0.089,0.016 -0.073,-0.031 0.527,-1.548 2.13,-2.612 3.297,-3.667 C 2.353,38.47 3.867,37.333 5.771,36.797 5.757,36.742 5.753,36.686 5.767,36.63 5.636,35.836 5.51,35.042 5.389,34.246 c -3.112,0.239 -7.465,2.602 -9.055,4.955 -0.007,0.011 -0.022,-10e-4 -0.016,-0.012 1.084,-1.795 2.724,-2.845 4.573,-3.755 1.38,-0.681 2.872,-1.486 4.433,-1.602 -0.222,-1.472 -0.439,-2.945 -0.658,-4.418 -1.351,0.503 -2.78,0.744 -4.116,1.278 -1.986,0.795 -3.502,2.223 -4.671,3.978 -0.07,0.106 -0.247,0.017 -0.178,-0.094 2.154,-3.424 5.253,-4.429 8.883,-5.711 -0.182,-1.208 -0.371,-2.415 -0.57,-3.621 -2.971,0.569 -6.813,2.383 -8.316,4.963 -0.11,0.189 -0.412,0.032 -0.302,-0.159 0.95,-1.653 2.585,-2.699 4.254,-3.542 C 0.853,25.899 2.508,24.893 3.939,24.785 3.933,24.746 3.927,24.706 3.92,24.667 3.626,22.932 3.283,21.205 2.913,19.485 c -3.318,0.834 -5.464,3.292 -7.876,5.593 -0.167,0.16 -0.43,-0.084 -0.263,-0.247 2.457,-2.419 4.616,-4.956 8.03,-5.851 -0.307,-1.399 -0.632,-2.795 -0.97,-4.188 -2.826,0.79 -5.624,2.796 -7.452,5.1 -0.13,0.164 -0.358,-0.058 -0.235,-0.22 1.901,-2.5 4.64,-4.387 7.556,-5.42 -0.366,-1.495 -0.746,-2.986 -1.13,-4.477 -2.903,0.442 -5.14,2.26 -6.928,4.558 C -6.397,14.386 -6.49,14.316 -6.451,14.261 -4.862,12.05 -2.459,9.497 0.433,9.229 0.311,8.754 0.187,8.278 0.064,7.803 -0.01,7.517 -0.087,7.226 -0.166,6.932 -2.355,7.576 -4.388,8.362 -6.194,9.838 -6.245,9.88 -6.303,9.801 -6.256,9.758 -4.538,8.212 -2.482,7.17 -0.285,6.494 -0.529,5.599 -0.786,4.679 -1.041,3.741 -1.584,3.994 -2.11,4.271 -2.703,4.449 -3.792,4.775 -4.498,5.466 -5.445,6.035 -5.533,6.088 -5.631,5.965 -5.543,5.908 -4.711,5.365 -4.126,4.666 -3.177,4.309 -2.473,4.043 -1.811,3.706 -1.131,3.404 -2.129,-0.315 -3.012,-4.27 -2.533,-7.84 -2.427,-8.632 -1.098,-8.842 -0.893,-7.999 -0.263,-5.411 -0.295,-2.646 0,0"
             style="fill:#747ded;fill-opacity:1;fill-rule:nonzero;stroke:none"
             id="path498" />
        </g>
      </g>
    </g>
    <g
       id="g500">
      <g
         id="g502">
        <g
           id="g508">
          <g
             id="g510">
            <path
               d="m 335.29,166.919 c 1.018,-3.079 2.123,-6.127 3.166,-9.198 v 0 c 0.965,-2.841 1.442,-6.257 2.663,-8.953 v 0 c 1.539,-3.4 4.783,-9.088 8.129,-10.93 v 0 c 2.557,-1.408 6.023,-2.064 8.456,-0.263 v 0 c 9.036,6.685 2.583,19.321 0.624,27.594 v 0 c -1.042,4.405 -2.4,8.812 -3.24,13.255 v 0 c -0.568,3.006 -0.969,6.269 -3.036,8.721 v 0 c -1.167,1.385 -2.506,2.704 -3.867,3.909 v 0 c -2.991,2.643 -5.993,4.803 -8.321,7.923 v 0 c -6.853,-9.584 -8.245,-20.962 -4.574,-32.058"
               style="fill:url(#linearGradient516);stroke:none"
               id="path518" />
          </g>
        </g>
      </g>
    </g>
    <g
       id="g520">
      <g
         id="g522"
         clip-path="url(#clipPath526)">
        <g
           id="g528"
           transform="translate(356.1328,136.5332)">
          <path
             d="m 0,0 c -0.225,0.666 -0.44,1.336 -0.652,2.008 1.192,0.557 2.118,1.814 2.878,2.8 1.318,1.709 2.125,3.655 2.847,5.671 0.038,0.107 -0.139,0.168 -0.187,0.067 C 4.058,8.77 3.162,7.006 1.894,5.496 1.187,4.655 0.187,3.354 -0.864,2.701 -1.111,3.506 -1.346,4.313 -1.571,5.124 -0.4,5.854 0.358,7.2 1.119,8.314 2.413,10.208 3.313,12.296 4.29,14.359 4.302,14.383 4.267,14.401 4.255,14.378 2.641,11.473 1.098,7.687 -1.729,5.7 -2.005,6.719 -2.27,7.74 -2.507,8.766 -2.52,8.819 -2.531,8.873 -2.543,8.927 0.605,11.491 1.717,15.415 3.396,18.95 3.424,19.008 3.341,19.062 3.311,19.003 1.593,15.66 0.175,12.097 -2.681,9.534 c -0.334,1.471 -0.654,2.943 -0.971,4.414 2.675,2.696 4.373,5.788 5.403,9.475 0.018,0.061 -0.073,0.095 -0.095,0.033 -1.204,-3.519 -3.127,-6.113 -5.445,-8.877 -0.315,1.457 -0.632,2.912 -0.967,4.364 1.078,1.338 2.353,2.44 3.223,3.944 0.858,1.483 1.506,3.078 1.707,4.786 0.011,0.09 -0.123,0.107 -0.139,0.018 -0.597,-3.439 -2.946,-5.515 -4.942,-8.107 -0.318,1.351 -0.654,2.697 -1.017,4.039 2.182,2.981 4.673,5.963 4.894,9.833 0.003,0.038 -0.055,0.048 -0.06,0.009 -0.436,-3.664 -2.945,-6.322 -5.018,-9.172 -0.067,0.238 -0.129,0.477 -0.199,0.715 -0.355,1.235 -0.724,2.467 -1.096,3.697 1.372,1.461 2.535,3.161 3.592,4.856 0.75,1.202 1.577,2.433 1.769,3.862 0.013,0.09 -0.122,0.114 -0.139,0.024 -0.523,-2.987 -3.363,-5.894 -5.383,-8.208 -0.377,1.242 -0.756,2.484 -1.132,3.726 2.028,3.024 4.911,5.516 5.216,9.406 0.008,0.115 -0.165,0.137 -0.18,0.022 -0.49,-3.652 -3.256,-5.995 -5.212,-8.848 -0.232,0.77 -0.463,1.541 -0.69,2.312 2.528,2.541 4.886,6.747 5.21,10.252 0.019,0.194 -0.267,0.233 -0.297,0.04 -0.515,-3.182 -2.586,-7.345 -5.089,-9.676 -0.365,1.252 -0.719,2.506 -1.053,3.767 0.006,0.042 0.005,0.083 -0.003,0.125 1.182,1.04 2.086,2.637 2.929,3.916 1.015,1.543 1.9,3.198 2.114,5.056 0.023,0.205 -0.305,0.232 -0.32,0.025 -0.23,-3.049 -2.691,-6.166 -4.923,-8.328 -0.119,0.461 -0.24,0.922 -0.354,1.385 -0.169,0.692 -0.335,1.387 -0.5,2.081 0.74,1.26 1.955,2.264 2.679,3.568 0.63,1.134 1.073,2.353 1.495,3.576 0.042,0.121 -0.138,0.195 -0.186,0.074 -0.621,-1.553 -1.293,-3.076 -2.302,-4.422 -0.565,-0.752 -1.315,-1.38 -1.837,-2.16 -0.27,1.135 -0.54,2.27 -0.82,3.402 0.011,0.008 0.022,0.018 0.035,0.026 0.013,0.004 0.028,0.007 0.042,0.011 0.083,0.021 0.13,0.075 0.153,0.139 1.308,1.063 1.848,2.867 2.337,4.418 0.012,0.037 -0.041,0.056 -0.056,0.02 -0.595,-1.452 -1.285,-3.074 -2.491,-4.14 -0.006,-10e-4 -0.011,0 -0.017,-10e-4 -0.039,-0.012 -0.077,-0.023 -0.115,-0.033 -0.23,0.919 -0.47,1.837 -0.723,2.751 0.097,0.069 0.148,0.204 0.073,0.299 0.54,0.893 0.941,1.897 1.305,2.868 0.027,0.072 -0.079,0.116 -0.112,0.045 -0.417,-0.924 -0.874,-1.739 -1.455,-2.539 -0.539,1.881 -1.143,3.742 -1.874,5.566 -0.067,0.169 -0.317,0.054 -0.257,-0.114 0.642,-1.785 1.183,-3.595 1.674,-5.419 -1.317,0.691 -2.741,1.372 -3.811,2.367 -0.056,0.052 -0.145,-0.021 -0.091,-0.079 0.598,-0.649 1.331,-1.119 2.064,-1.603 0.656,-0.432 1.284,-1 2.009,-1.317 0.258,-0.983 0.5,-1.969 0.733,-2.957 -1.067,-0.303 -2.066,-0.539 -3.221,-0.201 -1.415,0.413 -2.544,1.344 -3.261,2.626 -0.089,0.157 -0.346,0.037 -0.255,-0.12 0.689,-1.182 1.721,-2.116 2.994,-2.643 1.34,-0.555 2.527,-0.378 3.839,-0.069 0.267,-1.143 0.527,-2.288 0.782,-3.435 -1.155,0.121 -2.323,0.438 -3.438,0.708 -1.8,0.435 -3.161,1.334 -4.85,1.981 -0.169,0.065 -0.276,-0.192 -0.107,-0.259 1.597,-0.639 2.891,-1.532 4.581,-1.987 1.217,-0.326 2.61,-0.798 3.906,-0.855 0.013,-0.061 0.027,-0.121 0.04,-0.182 -0.006,-0.015 -0.014,-0.029 -0.02,-0.046 -0.044,-0.115 0.007,-0.2 0.085,-0.243 0.244,-1.098 0.489,-2.196 0.744,-3.292 0.015,-0.068 0.034,-0.137 0.05,-0.205 -2.818,-0.019 -7.148,0.213 -8.709,2.764 -0.15,0.243 -0.498,-0.006 -0.318,-0.242 2.107,-2.729 6.087,-2.519 9.169,-3.107 0.299,-1.235 0.616,-2.464 0.953,-3.688 -1.74,-0.182 -3.464,-0.208 -5.189,0.208 -1.569,0.377 -3.701,0.721 -4.874,1.892 -0.036,0.037 -0.089,-0.022 -0.054,-0.059 1.131,-1.181 3.033,-1.468 4.537,-1.933 1.908,-0.59 3.761,-0.981 5.713,-0.663 0.01,-0.056 0.031,-0.109 0.067,-0.154 0.216,-0.775 0.437,-1.548 0.663,-2.321 -2.922,-1.095 -7.866,-0.791 -10.3,0.671 -0.011,0.007 -0.02,-0.011 -0.009,-0.017 1.74,-1.17 3.67,-1.43 5.73,-1.476 1.539,-0.034 3.23,-0.134 4.696,0.42 0.418,-1.429 0.845,-2.856 1.266,-4.283 -1.435,-0.115 -2.834,-0.499 -4.27,-0.578 -2.136,-0.118 -4.112,0.537 -5.913,1.634 -0.11,0.067 -0.232,-0.088 -0.122,-0.16 3.398,-2.195 6.631,-1.798 10.463,-1.428 0.345,-1.172 0.684,-2.346 1.011,-3.523 -2.933,-0.738 -7.181,-0.716 -9.632,0.989 -0.181,0.125 -0.387,-0.145 -0.207,-0.272 1.559,-1.098 3.483,-1.356 5.351,-1.415 1.346,-0.043 3.272,-0.257 4.614,0.25 0.011,-0.038 0.023,-0.077 0.034,-0.115 0.465,-1.698 0.883,-3.408 1.273,-5.123 -3.36,-0.645 -6.343,0.678 -9.5,1.747 -0.22,0.074 -0.354,-0.258 -0.134,-0.336 3.248,-1.156 6.276,-2.545 9.748,-1.914 0.314,-1.399 0.608,-2.802 0.889,-4.207 -2.896,-0.476 -6.278,0.161 -8.908,1.478 -0.187,0.094 -0.3,-0.204 -0.119,-0.299 2.777,-1.464 6.056,-2.018 9.136,-1.724 0.299,-1.51 0.584,-3.023 0.866,-4.536 -2.82,-0.825 -5.615,-0.121 -8.206,1.208 -0.06,0.031 -0.115,-0.072 -0.055,-0.106 2.373,-1.333 5.629,-2.633 8.363,-1.655 0.09,-0.484 0.179,-0.966 0.269,-1.449 C -3.182,6.811 -3.129,6.514 -3.077,6.215 -5.334,5.875 -7.508,5.729 -9.769,6.305 -9.832,6.321 -9.852,6.226 -9.79,6.207 -7.581,5.53 -5.277,5.453 -3,5.768 -2.844,4.854 -2.688,3.91 -2.523,2.953 -3.122,2.954 -3.716,2.982 -4.329,2.894 -5.454,2.729 -6.385,3.058 -7.485,3.174 -7.586,3.185 -7.623,3.032 -7.52,3.017 c 0.984,-0.141 1.809,-0.528 2.822,-0.452 0.749,0.057 1.492,0.031 2.235,0.044 0.665,-3.793 1.533,-7.75 3.475,-10.785 0.43,-0.673 1.723,-0.303 1.553,0.548 C 2.045,-5.016 0.849,-2.522 0,0"
             style="fill:#747ded;fill-opacity:1;fill-rule:nonzero;stroke:none"
             id="path530" />
        </g>
      </g>
    </g>
    <g
       id="g532">
      <g
         id="g534">
        <g
           id="g540">
          <g
             id="g542">
            <path
               d="m 349.815,179.043 c 0.524,-3.979 1.162,-7.941 1.718,-11.915 v 0 c 0.515,-3.678 0.305,-7.942 1.164,-11.501 v 0 c 1.084,-4.49 3.711,-12.156 7.352,-15.171 v 0 c 2.784,-2.303 6.843,-3.903 10.219,-2.277 v 0 c 12.533,6.034 7.614,22.892 7.149,33.401 v 0 c -0.248,5.596 -0.877,11.268 -0.871,16.866 v 0 c 0.005,3.784 0.274,7.845 -1.671,11.305 v 0 c -1.099,1.953 -2.419,3.865 -3.798,5.645 v 0 c -3.023,3.907 -6.173,7.228 -8.28,11.559 v 0 c -10.55,-10.062 -14.876,-23.574 -12.982,-37.912"
               style="fill:url(#linearGradient548);stroke:none"
               id="path550" />
          </g>
        </g>
      </g>
    </g>
    <g
       id="g552">
      <g
         id="g554"
         clip-path="url(#clipPath558)">
        <g
           id="g560"
           transform="translate(368.1172,137.2773)">
          <path
             d="m 0,0 c -0.118,0.861 -0.227,1.726 -0.328,2.591 1.579,0.402 2.996,1.715 4.147,2.737 1.998,1.773 3.43,3.951 4.775,6.235 0.071,0.122 -0.131,0.238 -0.212,0.125 C 6.963,9.721 5.466,7.783 3.575,6.242 2.521,5.384 1.004,4.032 -0.425,3.483 -0.539,4.519 -0.638,5.555 -0.724,6.593 0.869,7.209 2.103,8.67 3.286,9.848 5.297,11.85 6.874,14.181 8.54,16.463 8.56,16.489 8.521,16.519 8.501,16.494 5.866,13.335 3.114,9.091 -0.782,7.329 c -0.1,1.302 -0.185,2.605 -0.236,3.907 -0.003,0.069 -0.004,0.136 -0.006,0.204 4.421,2.389 6.68,6.902 9.541,10.81 0.046,0.063 -0.042,0.148 -0.092,0.084 -2.863,-3.666 -5.412,-7.669 -9.476,-10.124 -0.065,1.865 -0.114,3.729 -0.159,5.592 3.876,2.656 6.656,6.023 8.762,10.266 0.036,0.072 -0.067,0.133 -0.108,0.063 -2.278,-4 -5.216,-6.708 -8.674,-9.53 -0.045,1.843 -0.094,3.686 -0.165,5.529 1.62,1.376 3.424,2.421 4.831,4.048 1.386,1.604 2.543,3.393 3.183,5.423 0.034,0.106 -0.126,0.159 -0.165,0.054 -1.522,-4.042 -4.858,-6.023 -7.886,-8.712 -0.072,1.715 -0.169,3.431 -0.3,5.146 3.342,3.119 7.061,6.167 8.226,10.821 0.012,0.046 -0.056,0.071 -0.07,0.025 -1.38,-4.354 -5.045,-7.004 -8.226,-9.99 -0.025,0.306 -0.046,0.611 -0.074,0.916 -0.147,1.584 -0.311,3.167 -0.478,4.749 2.006,1.458 3.814,3.256 5.492,5.072 1.19,1.287 2.48,2.592 3.045,4.285 0.035,0.106 -0.123,0.167 -0.162,0.061 -1.33,-3.509 -5.455,-6.387 -8.447,-8.731 -0.171,1.598 -0.344,3.194 -0.513,4.791 3.166,3.207 7.248,5.569 8.518,10.227 0.037,0.139 -0.168,0.206 -0.214,0.068 C 3.924,48.059 0.02,45.85 -3.02,42.834 c -0.103,0.99 -0.205,1.98 -0.301,2.972 3.661,2.503 7.501,7.069 8.708,11.256 0.066,0.23 -0.272,0.343 -0.355,0.118 -1.361,-3.751 -4.844,-8.332 -8.427,-10.586 -0.152,1.606 -0.293,3.214 -0.407,4.824 0.018,0.05 0.026,0.1 0.026,0.152 1.677,0.992 3.146,2.722 4.466,4.082 1.593,1.641 3.051,3.449 3.742,5.658 0.076,0.244 -0.318,0.352 -0.384,0.105 -0.985,-3.653 -4.697,-6.873 -7.912,-8.986 -0.038,0.589 -0.078,1.176 -0.11,1.766 -0.046,0.881 -0.087,1.764 -0.127,2.646 1.191,1.36 2.902,2.3 4.084,3.718 1.028,1.232 1.849,2.611 2.646,4 0.079,0.137 -0.123,0.268 -0.21,0.133 -1.114,-1.743 -2.284,-3.44 -3.822,-4.842 -0.861,-0.784 -1.918,-1.374 -2.734,-2.201 -0.064,1.443 -0.131,2.885 -0.21,4.326 0.017,0.007 0.033,0.016 0.049,0.024 0.019,10e-4 0.036,0.002 0.055,0.003 0.104,0.006 0.175,0.061 0.218,0.133 1.836,0.99 2.91,3.058 3.864,4.83 0.022,0.042 -0.037,0.079 -0.064,0.038 -1.06,-1.628 -2.273,-3.44 -3.987,-4.457 -0.008,0 -0.013,0.003 -0.021,0.002 -0.05,-0.004 -0.097,-0.009 -0.147,-0.013 -0.067,1.172 -0.146,2.343 -0.243,3.512 0.136,0.061 0.228,0.214 0.159,0.347 0.863,0.96 1.584,2.088 2.25,3.183 0.05,0.082 -0.069,0.161 -0.125,0.082 -0.721,-1.028 -1.466,-1.912 -2.356,-2.749 -0.22,2.41 -0.525,4.813 -0.991,7.199 -0.043,0.221 -0.373,0.14 -0.337,-0.079 0.367,-2.318 0.604,-4.644 0.779,-6.975 -1.441,1.145 -3.014,2.302 -4.086,3.76 -0.056,0.076 -0.18,0.008 -0.128,-0.075 0.578,-0.927 1.359,-1.669 2.138,-2.427 0.697,-0.677 1.329,-1.512 2.138,-2.066 0.085,-1.254 0.152,-2.509 0.207,-3.765 -1.369,-0.121 -2.637,-0.176 -3.964,0.501 -1.624,0.83 -2.781,2.224 -3.356,3.949 -0.071,0.211 -0.412,0.124 -0.337,-0.087 0.563,-1.597 1.602,-2.971 3.028,-3.907 1.5,-0.984 2.984,-1.044 4.651,-0.972 0.059,-1.451 0.11,-2.903 0.155,-4.357 -1.376,0.414 -2.723,1.071 -4.015,1.657 -2.088,0.946 -3.536,2.352 -5.438,3.531 -0.19,0.118 -0.38,-0.17 -0.19,-0.291 1.793,-1.146 3.159,-2.531 5.109,-3.475 1.403,-0.679 2.988,-1.575 4.551,-1.945 0.002,-0.076 0.004,-0.153 0.007,-0.23 -0.012,-0.017 -0.026,-0.033 -0.037,-0.05 -0.08,-0.13 -0.038,-0.246 0.048,-0.316 0.042,-1.391 0.086,-2.784 0.142,-4.175 0.004,-0.086 0.01,-0.173 0.014,-0.26 -3.43,0.63 -8.641,1.914 -9.949,5.377 -0.125,0.329 -0.607,0.107 -0.441,-0.22 1.929,-3.807 6.816,-4.474 10.428,-5.902 0.076,-1.57 0.177,-3.138 0.304,-4.705 -2.158,0.182 -4.259,0.55 -6.26,1.455 -1.822,0.822 -4.333,1.734 -5.488,3.429 -0.036,0.054 -0.113,-0.007 -0.079,-0.059 1.102,-1.698 3.348,-2.488 5.068,-3.4 2.183,-1.159 4.345,-2.064 6.792,-2.13 -10e-4,-0.07 0.012,-0.139 0.045,-0.202 0.083,-0.992 0.173,-1.983 0.268,-2.974 -3.805,-0.657 -9.744,0.858 -12.365,3.2 -0.012,0.011 -0.027,-0.008 -0.016,-0.02 1.846,-1.825 4.131,-2.588 6.624,-3.12 1.864,-0.397 3.898,-0.911 5.807,-0.576 0.178,-1.834 0.365,-3.668 0.549,-5.502 -1.773,0.194 -3.561,0.051 -5.326,0.287 -2.624,0.352 -4.875,1.605 -6.811,3.357 -0.116,0.105 -0.301,-0.056 -0.185,-0.167 3.623,-3.455 7.645,-3.722 12.389,-4.16 0.149,-1.504 0.289,-3.01 0.415,-4.517 -3.737,-0.218 -8.897,0.793 -11.482,3.433 -0.19,0.194 -0.504,-0.086 -0.315,-0.283 1.642,-1.695 3.921,-2.454 6.179,-2.959 1.626,-0.364 3.917,-1.069 5.667,-0.764 0.004,-0.049 0.009,-0.099 0.014,-0.149 0.172,-2.171 0.285,-4.346 0.362,-6.522 -4.234,-0.005 -7.554,2.295 -11.146,4.324 -0.249,0.141 -0.49,-0.232 -0.24,-0.378 3.682,-2.156 7.04,-4.546 11.408,-4.584 0.057,-1.772 0.09,-3.546 0.106,-5.32 -3.63,0.092 -7.596,1.649 -10.487,3.86 -0.206,0.156 -0.412,-0.179 -0.214,-0.336 3.038,-2.423 6.896,-3.856 10.709,-4.212 0.012,-1.905 0.009,-3.809 0.001,-5.714 -3.619,-0.349 -6.853,1.154 -9.696,3.368 -0.066,0.051 -0.157,-0.061 -0.092,-0.116 2.576,-2.171 6.234,-4.505 9.785,-3.949 C -2.282,10.598 -2.285,9.989 -2.289,9.382 -2.291,9.015 -2.296,8.643 -2.302,8.267 -5.124,8.376 -7.801,8.703 -10.416,9.926 -10.489,9.96 -10.534,9.849 -10.465,9.812 -7.936,8.478 -5.152,7.851 -2.312,7.705 -2.333,6.558 -2.362,5.375 -2.384,4.174 -3.111,4.312 -3.827,4.485 -4.593,4.519 -5.999,4.58 -7.054,5.194 -8.364,5.591 c -0.12,0.036 -0.2,-0.141 -0.078,-0.183 1.163,-0.399 2.076,-1.06 3.324,-1.202 0.925,-0.104 1.822,-0.309 2.728,-0.464 -0.07,-4.766 0.071,-9.777 1.728,-13.917 0.367,-0.918 2.024,-0.766 2.016,0.307 C 1.325,-6.572 0.447,-3.264 0,0"
             style="fill:#747ded;fill-opacity:1;fill-rule:nonzero;stroke:none"
             id="path562" />
        </g>
        <g
           id="g564"
           transform="translate(384.335,133.3398)">
          <path
             d="M 0,0 -0.464,-8.543 -1.19,-21.846 -2.38,-43.703 h -29.592 l -1.189,21.857 -0.727,13.303 L -34.352,0 Z"
             style="fill:#95a8b5;fill-opacity:1;fill-rule:nonzero;stroke:none"
             id="path566" />
        </g>
        <g
           id="g568"
           transform="translate(383.8711,124.7969)">
          <path
             d="m 0,0 -0.096,-1.713 -0.094,-1.773 -0.537,-9.817 h -31.97 l -0.536,9.817 -0.095,1.773 L -33.424,0 Z"
             style="fill:#a5b7c6;fill-opacity:1;fill-rule:nonzero;stroke:none"
             id="path570" />
        </g>
        <g
           id="g572"
           transform="translate(383.7754,123.084)">
          <path
             d="M 0,0 -0.095,-1.773 H -33.138 L -33.232,0 Z"
             style="fill:#95a8b5;fill-opacity:1;fill-rule:nonzero;stroke:none"
             id="path574" />
        </g>
      </g>
    </g>
    <g
       id="g576">
      <g
         id="g578"
         clip-path="url(#clipPath582)">
        <g
           id="g584"
           transform="translate(260.1035,32.0518)">
          <path
             d="m 0,0 c -0.432,-0.443 -0.803,-0.932 -1.108,-1.453 l -0.465,0.24 c -0.067,0.298 -0.349,0.503 -0.659,0.467 -0.331,-0.039 -0.568,-0.339 -0.529,-0.67 0.039,-0.331 0.339,-0.567 0.67,-0.529 0.066,0.008 0.127,0.026 0.184,0.052 l 0.451,-0.234 c -0.251,-0.554 -0.433,-1.139 -0.539,-1.744 l 0.746,-0.131 c 0.23,1.306 0.85,2.506 1.792,3.473 z"
             style="fill:#a5b7c6;fill-opacity:1;fill-rule:nonzero;stroke:none"
             id="path586" />
        </g>
        <g
           id="g588"
           transform="translate(265.5918,34.3535)">
          <path
             d="m 0,0 c -0.171,0 -0.341,-0.006 -0.51,-0.018 l -0.073,0.627 c 0.187,0.149 0.296,0.389 0.266,0.645 C -0.364,1.646 -0.72,1.928 -1.113,1.882 -1.506,1.835 -1.787,1.479 -1.741,1.086 -1.711,0.832 -1.552,0.625 -1.336,0.522 l 0.073,-0.624 c -0.714,-0.116 -1.403,-0.332 -2.059,-0.646 l 0.327,-0.684 c 0.933,0.448 1.941,0.674 2.995,0.674 0.496,0 0.993,-0.054 1.475,-0.158 l 0.161,0.741 C 1.101,-0.059 0.55,0 0,0"
             style="fill:#a5b7c6;fill-opacity:1;fill-rule:nonzero;stroke:none"
             id="path590" />
        </g>
        <g
           id="g592"
           transform="translate(272.1943,31.8057)">
          <path
             d="M 0,0 C 0.331,0.041 0.566,0.342 0.525,0.673 0.484,1.004 0.184,1.239 -0.146,1.198 -0.456,1.16 -0.683,0.895 -0.677,0.59 L -1.093,0.227 c -0.418,0.429 -0.889,0.812 -1.408,1.138 l -0.403,-0.64 c 1.133,-0.715 2.02,-1.727 2.563,-2.926 l 0.691,0.312 c -0.251,0.555 -0.568,1.073 -0.943,1.545 L -0.19,0.008 C -0.13,-0.005 -0.065,-0.008 0,0"
             style="fill:#a5b7c6;fill-opacity:1;fill-rule:nonzero;stroke:none"
             id="path594" />
        </g>
        <g
           id="g596"
           transform="translate(265.0439,24.1445)">
          <path
             d="m 0,0 c -0.386,-0.022 -0.774,-0.034 -1.157,-0.034 -0.88,0 -1.733,0.06 -2.479,0.179 -0.389,0.062 -0.845,0.155 -1.269,0.292 1.046,-1.861 3.069,-3.125 5.387,-3.125 2.856,0 5.263,1.916 5.951,4.503 C 5.751,1.366 4.927,0.99 3.974,0.693 2.795,0.325 1.419,0.086 0,0"
             style="fill:#a5b7c6;fill-opacity:1;fill-rule:nonzero;stroke:none"
             id="path598" />
        </g>
        <g
           id="g600"
           transform="translate(268.1699,27.2305)">
          <path
             d="M 0,0 C -0.75,0 -1.36,0.61 -1.36,1.36 -1.36,2.11 -0.75,2.721 0,2.721 0.75,2.721 1.36,2.11 1.36,1.36 1.36,0.61 0.75,0 0,0 m -4.737,-0.908 c -1.021,0 -1.85,0.83 -1.85,1.849 0,1.021 0.829,1.85 1.85,1.85 1.019,0 1.849,-0.829 1.849,-1.85 0,-1.019 -0.83,-1.849 -1.849,-1.849 m 2.159,6.514 c -3.353,0 -6.08,-2.666 -6.08,-5.943 0,-0.426 0.047,-0.849 0.137,-1.262 0.674,-0.482 2.707,-0.889 5.348,-0.73 2.879,0.173 5.297,0.957 6.672,2.158 C 3.493,0.024 3.479,0.22 3.454,0.411 3.073,3.373 0.48,5.606 -2.578,5.606"
             style="fill:#a5b7c6;fill-opacity:1;fill-rule:nonzero;stroke:none"
             id="path602" />
        </g>
        <g
           id="g604"
           transform="translate(281.5947,30.9697)">
          <path
             d="m 0,0 c -0.294,0.116 -0.805,0.31 -1.382,0.237 -0.551,-0.068 -0.844,-0.34 -0.844,-1.006 v -0.866 h 2.228 v -1.718 h -2.228 v -5.454 h -1.931 v 5.454 h -1.34 v 1.718 h 1.34 v 0.888 c 0,1.681 0.895,2.783 2.568,2.783 0.643,0 1.157,-0.122 1.59,-0.308 z"
             style="fill:#a5b7c6;fill-opacity:1;fill-rule:nonzero;stroke:none"
             id="path606" />
        </g>
        <g
           id="g608"
           transform="translate(286.2979,27.6377)">
          <path
             d="m 0,0 c -0.177,0.03 -0.357,0.047 -0.526,0.047 -0.896,0 -1.51,-0.548 -1.51,-1.614 v -3.908 h -1.932 v 7.172 h 1.872 V 0.912 c 0.452,0.674 1.141,0.978 2.022,0.978 0.414,0 0.847,-0.128 1.094,-0.337 z"
             style="fill:#a5b7c6;fill-opacity:1;fill-rule:nonzero;stroke:none"
             id="path610" />
        </g>
        <g
           id="g612"
           transform="translate(288.8506,26.4258)">
          <path
             d="M 0,0 H 3.175 C 2.998,0.918 2.442,1.437 1.613,1.437 0.703,1.437 0.171,0.889 0,0 m 5.114,-0.666 c 0,-0.222 -0.014,-0.488 -0.037,-0.651 h -5.084 c 0.207,-1.037 0.933,-1.488 1.843,-1.488 0.621,0 1.295,0.251 1.812,0.689 L 4.781,-3.36 c -0.814,-0.747 -1.85,-1.088 -3.056,-1.088 -2.199,0 -3.723,1.495 -3.723,3.753 0,2.257 1.48,3.797 3.626,3.797 2.065,0 3.479,-1.533 3.486,-3.768"
             style="fill:#a5b7c6;fill-opacity:1;fill-rule:nonzero;stroke:none"
             id="path614" />
        </g>
        <g
           id="g616"
           transform="translate(296.5039,26.4258)">
          <path
             d="M 0,0 H 3.175 C 2.998,0.918 2.442,1.437 1.613,1.437 0.703,1.437 0.17,0.889 0,0 m 5.114,-0.666 c 0,-0.222 -0.014,-0.488 -0.037,-0.651 h -5.085 c 0.208,-1.037 0.933,-1.488 1.844,-1.488 0.621,0 1.295,0.251 1.813,0.689 L 4.781,-3.36 c -0.814,-0.747 -1.85,-1.088 -3.056,-1.088 -2.199,0 -3.723,1.495 -3.723,3.753 0,2.257 1.48,3.797 3.626,3.797 2.065,0 3.479,-1.533 3.486,-3.768"
             style="fill:#a5b7c6;fill-opacity:1;fill-rule:nonzero;stroke:none"
             id="path618" />
        </g>
        <g
           id="g620"
           transform="translate(304.2871,25.752)">
          <path
             d="m 0,0 c 0,-1.132 0.747,-1.976 1.843,-1.976 1.139,0 1.85,0.881 1.85,1.976 0,1.096 -0.711,1.977 -1.85,1.977 C 0.747,1.977 0,1.133 0,0 m 5.677,0 c 0,-2.153 -1.495,-3.774 -3.472,-3.774 -0.962,0 -1.643,0.378 -2.108,0.932 V -6.55 H -1.828 V 3.583 H 0.06 V 2.791 C 0.525,3.376 1.214,3.775 2.198,3.775 4.182,3.775 5.677,2.154 5.677,0"
             style="fill:#a5b7c6;fill-opacity:1;fill-rule:nonzero;stroke:none"
             id="path622" />
        </g>
        <path
           d="m 312.809,22.163 h -1.932 v 7.172 h 1.932 z m 0.258,9.518 c 0,-0.696 -0.54,-1.229 -1.236,-1.229 -0.695,0 -1.228,0.533 -1.228,1.229 0,0.696 0.533,1.244 1.228,1.244 0.696,0 1.236,-0.548 1.236,-1.244"
           style="fill:#a5b7c6;fill-opacity:1;fill-rule:nonzero;stroke:none"
           id="path624" />
        <g
           id="g626"
           transform="translate(316.0322,26.7813)">
          <path
             d="M 0,0 2.701,2.554 H 5.07 L 1.591,-0.821 5.092,-4.618 H 2.716 L 0,-1.717 V -4.618 H -1.932 V 6.039 H 0 Z"
             style="fill:#a5b7c6;fill-opacity:1;fill-rule:nonzero;stroke:none"
             id="path628" />
        </g>
        <g
           id="g630"
           transform="translate(184.4121,24.1465)">
          <path
             d="m 0,0 v 3.208 c -0.396,0.615 -1.244,1.143 -2.124,1.143 -1.42,0 -2.271,-1.172 -2.271,-2.74 0,-1.567 0.851,-2.724 2.271,-2.724 0.88,0 1.728,0.498 2.124,1.113 m 0,-1.919 v 1.055 c -0.527,-0.718 -1.391,-1.231 -2.388,-1.231 -1.845,0 -3.148,1.407 -3.148,3.706 0,2.256 1.289,3.721 3.148,3.721 0.953,0 1.817,-0.469 2.388,-1.245 v 3.765 h 1.1 v -9.771 z"
             style="fill:#a5b7c6;fill-opacity:1;fill-rule:nonzero;stroke:none"
             id="path632" />
        </g>
        <g
           id="g634"
           transform="translate(190.4033,28.5703)">
          <path
             d="M 0,0 C -1.509,0 -2.256,-1.274 -2.314,-2.358 H 2.329 C 2.314,-1.304 1.611,0 0,0 m -3.472,-2.798 c 0,2.051 1.465,3.706 3.487,3.706 2.138,0 3.398,-1.67 3.398,-3.794 v -0.278 h -5.727 c 0.087,-1.333 1.025,-2.446 2.548,-2.446 0.806,0 1.626,0.322 2.183,0.893 L 2.944,-5.435 C 2.241,-6.138 1.289,-6.519 0.132,-6.519 c -2.095,0 -3.604,1.509 -3.604,3.721"
             style="fill:#a5b7c6;fill-opacity:1;fill-rule:nonzero;stroke:none"
             id="path636" />
        </g>
        <g
           id="g638"
           transform="translate(194.6074,23.165)">
          <path
             d="M 0,0 0.571,0.791 C 1.04,0.249 1.934,-0.22 2.899,-0.22 c 1.084,0 1.671,0.513 1.671,1.216 0,1.714 -4.38,0.659 -4.38,3.281 0,1.099 0.952,2.036 2.636,2.036 1.201,0 2.052,-0.454 2.622,-1.025 L 4.936,4.526 C 4.512,5.039 3.734,5.42 2.826,5.42 1.859,5.42 1.259,4.937 1.259,4.307 c 0,-1.553 4.38,-0.528 4.38,-3.282 0,-1.186 -0.952,-2.138 -2.784,-2.138 C 1.699,-1.113 0.717,-0.762 0,0"
             style="fill:#a5b7c6;fill-opacity:1;fill-rule:nonzero;stroke:none"
             id="path640" />
        </g>
        <path
           d="m 201.667,29.303 h 1.099 v -7.075 h -1.099 z m -0.19,1.743 c 0,0.41 0.336,0.747 0.732,0.747 0.41,0 0.747,-0.337 0.747,-0.747 0,-0.41 -0.337,-0.733 -0.747,-0.733 -0.396,0 -0.732,0.323 -0.732,0.733"
           style="fill:#a5b7c6;fill-opacity:1;fill-rule:nonzero;stroke:none"
           id="path642" />
        <g
           id="g644"
           transform="translate(209.709,24.2637)">
          <path
             d="m 0,0 v 3.091 c -0.381,0.615 -1.23,1.142 -2.109,1.142 -1.421,0 -2.271,-1.128 -2.271,-2.695 0,-1.553 0.85,-2.695 2.271,-2.695 0.879,0 1.728,0.542 2.109,1.157 m -5.127,-3.853 0.557,0.821 c 0.586,-0.703 1.289,-0.967 2.299,-0.967 1.172,0 2.271,0.571 2.271,2.124 v 1.011 c -0.513,-0.718 -1.377,-1.26 -2.373,-1.26 -1.846,0 -3.149,1.377 -3.149,3.662 0,2.271 1.289,3.677 3.149,3.677 0.952,0 1.802,-0.469 2.373,-1.245 v 1.069 h 1.099 v -6.87 c 0,-2.344 -1.641,-3.076 -3.37,-3.076 -1.201,0 -2.021,0.234 -2.856,1.054"
             style="fill:#a5b7c6;fill-opacity:1;fill-rule:nonzero;stroke:none"
             id="path646" />
        </g>
        <g
           id="g648"
           transform="translate(217.4131,22.2275)">
          <path
             d="M 0,0 V 4.629 C 0,5.874 -0.63,6.27 -1.582,6.27 -2.446,6.27 -3.267,5.742 -3.677,5.171 V 0 h -1.098 v 7.075 h 1.098 V 6.05 c 0.498,0.586 1.465,1.201 2.52,1.201 1.479,0 2.256,-0.747 2.256,-2.285 L 1.099,0 Z"
             style="fill:#a5b7c6;fill-opacity:1;fill-rule:nonzero;stroke:none"
             id="path650" />
        </g>
        <g
           id="g652"
           transform="translate(223.4043,28.5703)">
          <path
             d="M 0,0 C -1.509,0 -2.256,-1.274 -2.314,-2.358 H 2.329 C 2.314,-1.304 1.611,0 0,0 m -3.472,-2.798 c 0,2.051 1.465,3.706 3.487,3.706 2.138,0 3.398,-1.67 3.398,-3.794 v -0.278 h -5.727 c 0.087,-1.333 1.025,-2.446 2.548,-2.446 0.806,0 1.626,0.322 2.183,0.893 L 2.944,-5.435 C 2.241,-6.138 1.289,-6.519 0.132,-6.519 c -2.095,0 -3.604,1.509 -3.604,3.721"
             style="fill:#a5b7c6;fill-opacity:1;fill-rule:nonzero;stroke:none"
             id="path654" />
        </g>
        <g
           id="g656"
           transform="translate(233.3496,24.1465)">
          <path
             d="m 0,0 v 3.208 c -0.396,0.615 -1.245,1.143 -2.124,1.143 -1.421,0 -2.27,-1.172 -2.27,-2.74 0,-1.567 0.849,-2.724 2.27,-2.724 0.879,0 1.728,0.498 2.124,1.113 m 0,-1.919 v 1.055 c -0.527,-0.718 -1.392,-1.231 -2.388,-1.231 -1.845,0 -3.149,1.407 -3.149,3.706 0,2.256 1.289,3.721 3.149,3.721 0.952,0 1.818,-0.469 2.388,-1.245 v 3.765 h 1.099 v -9.771 z"
             style="fill:#a5b7c6;fill-opacity:1;fill-rule:nonzero;stroke:none"
             id="path658" />
        </g>
        <g
           id="g660"
           transform="translate(242.8994,23.0332)">
          <path
             d="M 0,0 C 1.437,0 2.286,1.157 2.286,2.725 2.286,4.292 1.437,5.464 0,5.464 -0.863,5.464 -1.728,4.937 -2.109,4.321 V 1.113 C -1.728,0.498 -0.863,0 0,0 m -3.207,-0.806 v 9.771 h 1.098 V 5.2 c 0.572,0.777 1.421,1.245 2.388,1.245 1.845,0 3.149,-1.465 3.149,-3.72 0,-2.3 -1.304,-3.706 -3.149,-3.706 -0.996,0 -1.86,0.512 -2.388,1.23 v -1.055 z"
             style="fill:#a5b7c6;fill-opacity:1;fill-rule:nonzero;stroke:none"
             id="path662" />
        </g>
        <g
           id="g664"
           transform="translate(247.5283,20.4551)">
          <path
             d="m 0,0 c 0.161,-0.073 0.425,-0.117 0.601,-0.117 0.483,0 0.805,0.161 1.054,0.747 L 2.124,1.699 -0.835,8.848 H 0.352 L 2.71,3.047 5.054,8.848 H 6.255 L 2.71,0.337 C 2.285,-0.688 1.567,-1.084 0.63,-1.099 c -0.234,0 -0.601,0.044 -0.806,0.103 z"
             style="fill:#a5b7c6;fill-opacity:1;fill-rule:nonzero;stroke:none"
             id="path666" />
        </g>
      </g>
    </g>
  </g>
</svg>
